<svg version="1.1" id="Layer_1" xmlns="http://www.w3.org/2000/svg" xmlns:xlink="http://www.w3.org/1999/xlink" x="0px" y="0px"
	 width="100%" viewBox="0 0 247 237" enable-background="new 0 0 247 237" xml:space="preserve">
<path fill="#F1F3C2" opacity="1.000000" stroke="none" 
	d="
M152.000000,1.000000 
	C152.444336,1.000000 152.888672,1.000000 153.741241,1.390639 
	C156.813751,2.121181 159.471542,2.536309 162.145203,2.768141 
	C163.415482,2.878287 164.794189,2.316713 165.991058,2.606885 
	C180.702713,6.173645 191.513153,14.415513 196.822937,28.961060 
	C203.661697,47.695023 210.365952,66.478058 217.189575,85.217590 
	C221.960938,98.321075 226.996277,111.330658 231.606964,124.489655 
	C234.675842,133.248291 238.718079,142.038055 239.664551,151.091965 
	C241.738525,170.931747 231.493164,185.995544 212.782715,192.865753 
	C175.951050,206.389847 138.884308,219.288422 102.217445,233.241089 
	C80.433189,241.530533 55.751766,229.723907 48.927673,207.826126 
	C44.286781,192.934021 38.241764,178.482391 32.927689,163.796509 
	C24.558380,140.667221 15.980576,117.607063 8.055076,94.325630 
	C2.294031,77.402344 9.816687,57.487129 25.636955,49.442360 
	C36.813778,43.758831 48.973351,39.961819 60.801277,35.613903 
	C90.262543,24.784006 119.789665,14.133333 149.263763,3.338089 
	C150.319641,2.951358 151.094284,1.796740 152.000000,1.000000 
M102.282455,172.644592 
	C102.506363,172.391785 102.730278,172.138977 103.415634,171.473419 
	C104.411240,171.195526 105.406845,170.917648 106.981529,170.665802 
	C107.016174,170.122406 107.050819,169.578995 106.986526,169.024338 
	C106.986526,169.024338 106.993057,168.924957 107.000740,168.211060 
	C106.008331,167.468430 105.015915,166.725815 103.540291,165.651688 
	C103.329185,165.112503 103.118073,164.573318 103.349167,163.676193 
	C102.853569,163.136887 102.357964,162.597565 101.684547,161.804642 
	C101.684547,161.804642 101.656433,161.496170 101.840576,160.692703 
	C101.225433,159.112015 100.610291,157.531326 99.654320,155.856842 
	C99.654320,155.856842 99.301521,155.834564 99.220299,155.129425 
	C99.127670,154.427444 99.035049,153.725479 99.448143,152.542221 
	C98.863907,151.459930 98.279671,150.377655 97.680649,149.232056 
	C97.680649,149.232056 97.712936,149.175613 97.896317,148.344574 
	C97.742546,144.255264 100.804047,145.093842 103.731056,145.205948 
	C104.821014,146.464645 105.910973,147.723328 107.282471,149.440109 
	C107.757004,149.661911 108.231544,149.883713 108.965576,150.388397 
	C108.965576,150.388397 109.127495,150.736450 109.240402,151.269348 
	C109.498238,151.514160 109.756073,151.758987 110.180565,152.322144 
	C110.180565,152.322144 110.223282,152.678925 110.089203,153.513107 
	C110.756348,154.986267 111.423485,156.459412 112.048943,158.000153 
	C112.048943,158.000153 112.075615,157.932266 112.014603,158.711411 
	C112.098404,161.598831 112.870193,163.878677 116.746742,163.766251 
	C116.746742,163.766251 117.023491,163.946426 117.187653,164.682205 
	C120.000359,166.804626 122.625267,166.803421 125.312424,163.837875 
	C125.312424,163.837875 125.657326,163.803680 126.213326,163.737228 
	C126.474205,163.484085 126.735092,163.230927 127.329384,162.478577 
	C127.911209,161.677292 128.493027,160.875992 129.433960,159.982376 
	C129.433960,159.982376 129.786880,159.868179 130.505753,160.048462 
	C130.903366,160.328491 131.411179,160.528427 131.681778,160.900757 
	C134.864090,165.279419 130.588791,167.644577 128.400665,170.593979 
	C128.242493,170.466766 128.084320,170.339569 127.791954,169.709442 
	C127.549896,169.469650 127.307838,169.229874 126.933319,168.625336 
	C126.933319,168.625336 126.885330,168.240265 126.575150,167.617783 
	C125.923805,167.562103 125.272453,167.506409 124.319191,167.704544 
	C123.966705,167.874771 123.614220,168.044998 122.736122,168.274948 
	C122.486382,168.513031 122.236641,168.751114 121.656189,169.133179 
	C121.656189,169.133179 121.298653,169.180801 120.752533,169.256516 
	C120.511742,169.519577 120.270950,169.782623 120.027603,169.994186 
	C120.027603,169.994186 120.052940,170.040817 119.373207,170.115585 
	C117.035866,172.781570 119.081581,172.854294 121.688980,173.147079 
	C122.760971,173.887222 123.832954,174.627365 125.139923,175.956589 
	C126.768929,175.708710 128.397934,175.460831 130.641815,175.063828 
	C131.061157,175.021896 131.480484,174.979965 132.527786,174.964157 
	C133.010010,174.617538 133.492233,174.270920 134.365417,173.417603 
	C135.578827,171.944611 136.792236,170.471619 138.660599,168.868668 
	C138.825592,167.579590 138.990570,166.290497 139.044556,164.343872 
	C139.028137,163.900040 139.011719,163.456223 139.512589,162.476089 
	C139.672394,160.982285 139.832199,159.488480 140.560135,157.730026 
	C141.115067,157.429794 141.669998,157.129562 142.555161,157.402893 
	C142.700638,158.266861 142.846115,159.130844 142.492126,160.527512 
	C141.896591,163.293396 141.408218,166.012314 145.603134,166.714554 
	C145.603134,166.714554 145.969788,166.693909 146.015060,167.286255 
	C147.017578,166.539124 148.020096,165.791992 149.268692,164.854980 
	C149.268692,164.854980 149.574005,164.796844 150.173645,164.654480 
	C150.375580,164.316162 150.577515,163.977859 150.511932,163.287888 
	C150.315247,162.896255 150.118561,162.504639 149.971558,161.386337 
	C149.273254,160.623596 148.574966,159.860870 147.886169,159.028564 
	C147.886169,159.028564 147.899597,159.092773 147.964233,158.241241 
	C147.550781,154.504059 149.089188,153.150192 152.963394,152.806244 
	C158.758438,152.291763 163.674911,149.791870 165.997421,143.787766 
	C166.355362,142.862396 167.542938,142.257950 168.424667,141.583542 
	C168.424667,141.583542 168.446594,141.691833 168.274933,142.371353 
	C169.856171,143.236649 171.437408,144.101929 173.570740,145.118057 
	C174.074341,145.355621 174.577957,145.593185 175.151077,146.526932 
	C177.017319,149.228775 178.531815,147.881073 180.447678,145.981552 
	C180.447678,145.981552 180.901596,145.942368 181.679932,146.003494 
	C182.748978,145.261948 183.818039,144.520401 185.178848,143.410706 
	C185.423950,143.203140 185.704422,143.070114 186.736115,142.935760 
	C191.231216,139.662033 192.354568,135.259674 189.727646,129.889114 
	C187.796890,125.941818 185.152084,122.862244 179.252365,124.851616 
	C178.490036,124.799789 177.727722,124.747963 176.387955,124.305878 
	C174.961105,124.935844 173.534256,125.565819 171.710129,126.626709 
	C171.165314,126.830650 170.620483,127.034592 169.714066,126.685448 
	C168.772949,126.219788 167.831833,125.754128 166.327133,125.009613 
	C166.589722,127.414841 166.785202,129.205353 166.942856,131.660477 
	C166.808807,132.081894 166.674759,132.503296 165.895599,133.101227 
	C164.826035,133.535645 163.756470,133.970062 162.687729,134.349548 
	C162.687729,134.349548 162.639328,134.323563 162.727112,133.564346 
	C159.314758,132.391144 155.966370,130.845917 152.456070,130.242554 
	C151.193710,130.025589 149.541718,132.075500 147.995117,133.046448 
	C147.995117,133.046448 148.079391,133.056595 147.608398,133.206406 
	C147.310730,133.380814 147.105835,133.631149 146.713562,134.163757 
	C146.713562,134.163757 146.375229,134.245026 145.538788,134.115143 
	C143.951050,134.456650 142.363327,134.798157 140.370728,135.309265 
	C140.066696,135.454620 139.929367,135.695206 140.007523,136.033478 
	C140.007523,136.033478 140.007095,135.985367 139.341003,135.821228 
	C138.891937,135.906525 138.442871,135.991806 137.813416,135.760941 
	C137.658463,135.953430 137.503510,136.145920 137.300766,136.363556 
	C137.300766,136.363556 137.262100,136.401260 136.603348,136.094208 
	C135.661575,135.574158 134.719788,135.054108 135.069183,135.247040 
	C132.465469,136.835678 130.735168,137.891403 128.366943,138.979324 
	C127.942474,139.002151 127.518013,139.024979 126.351166,138.992783 
	C124.897888,139.635910 123.444618,140.279053 121.492104,141.187500 
	C121.701454,142.230804 121.605141,143.493637 122.170700,144.281097 
	C125.394081,148.769150 127.087067,153.450745 123.998703,158.974976 
	C122.969505,159.063354 121.940300,159.151733 120.527817,158.811539 
	C119.986984,158.658615 119.446159,158.505676 118.799522,158.126953 
	C118.799522,158.126953 118.574944,158.018600 118.580315,157.744156 
	C118.481499,157.548828 118.328140,157.485596 117.728333,157.176926 
	C117.569702,157.088989 117.411072,157.001038 117.090424,156.202377 
	C116.336632,154.490646 115.582832,152.778915 114.880783,150.275085 
	C114.688698,149.514816 114.496613,148.754562 114.564407,147.370010 
	C113.797195,141.413773 109.610115,147.334656 107.610321,145.169998 
	C106.973022,143.379349 106.344299,141.332581 105.520058,139.367828 
	C104.488579,136.909119 102.916992,135.967346 99.894150,138.347107 
	C96.849022,139.859924 93.803886,141.372757 90.165199,142.935791 
	C89.796944,143.080002 89.428688,143.224228 88.296516,143.287979 
	C85.898689,143.933380 83.393410,144.338287 81.154289,145.338821 
	C80.217720,145.757309 79.072342,147.716660 79.352203,148.500427 
	C80.540276,151.827652 82.227394,154.976700 83.964325,158.686615 
	C85.170403,154.538712 86.142952,151.193954 87.115501,147.849197 
	C87.584541,147.933289 88.053589,148.017380 88.522629,148.101471 
	C89.391373,150.006516 90.260117,151.911560 91.029274,154.544479 
	C91.450470,155.335693 91.871666,156.126892 92.480919,157.205795 
	C92.480919,157.205795 92.469284,157.549301 92.212708,158.329620 
	C91.959984,159.605438 91.239868,161.005417 91.539764,162.134445 
	C92.549644,165.936432 93.765434,169.708710 95.300667,173.323212 
	C95.577629,173.975311 97.738594,173.827179 99.701378,173.988449 
	C100.366035,173.526337 101.030685,173.064224 101.712021,172.643982 
	C101.712021,172.643982 101.756851,172.639343 102.282455,172.644592 
M128.997284,84.981270 
	C128.997284,84.981270 129.061172,84.932800 129.065994,85.540596 
	C129.602386,86.055908 130.138779,86.571213 130.926620,87.458252 
	C130.926620,87.458252 131.066147,87.884796 130.935944,88.501587 
	C130.288254,89.278442 129.640564,90.055290 128.419693,90.838646 
	C127.950905,90.550987 127.482109,90.263329 126.819122,89.543297 
	C126.635849,89.271507 126.390038,89.079971 125.642570,88.596596 
	C125.470253,88.058060 125.297928,87.519516 125.566658,86.532928 
	C124.711517,85.018623 123.856384,83.504311 122.844460,81.687935 
	C122.844460,81.687935 122.825577,81.348137 122.757240,80.784996 
	C122.495872,80.527145 122.234505,80.269295 122.003983,80.005951 
	C122.003983,80.005951 121.980110,80.028328 122.002380,79.256416 
	C119.321205,73.497887 110.781593,73.268860 106.126411,79.137398 
	C105.547638,82.221664 104.647179,85.289780 104.491341,88.395271 
	C104.365540,90.902443 105.137901,93.454681 105.511818,95.986931 
	C105.066185,96.092285 104.620552,96.197639 104.174919,96.302986 
	C102.742882,94.563980 101.310852,92.824966 99.922470,91.003471 
	C99.922470,91.003471 99.922722,91.096794 99.861977,90.668068 
	C99.760963,90.387115 99.586349,90.163712 99.110825,89.363083 
	C98.999596,88.701607 98.888367,88.040138 98.857483,86.670219 
	C98.483955,86.119537 98.110428,85.568855 97.581421,84.755058 
	C97.581421,84.755058 97.685310,84.467651 97.862221,83.488754 
	C98.117256,79.489388 98.372284,75.490013 98.698364,70.376472 
	C95.747139,71.680374 92.903061,72.936935 89.765976,74.318253 
	C89.765976,74.318253 89.457451,74.239357 88.887589,74.260841 
	C88.594795,74.486481 88.302010,74.712112 87.597107,75.372795 
	C89.635971,79.541428 91.674843,83.710068 93.996201,88.456268 
	C87.699692,88.882271 82.647354,89.736893 80.926086,95.935219 
	C80.926086,95.935219 80.746452,95.801735 80.079315,96.170097 
	C79.688667,98.065109 78.740669,100.045105 79.014145,101.838860 
	C79.768684,106.787933 82.215004,110.916161 86.895645,113.165321 
	C90.436615,114.866852 93.673363,114.041039 96.627441,110.875496 
	C96.835510,110.720978 96.987144,110.523193 97.312660,109.805023 
	C97.540787,109.538040 97.768913,109.271057 98.844421,108.994354 
	C99.976814,108.940651 101.109207,108.886955 102.632996,108.979927 
	C102.632996,108.979927 102.989105,109.198761 103.160660,109.476143 
	C103.160660,109.476143 103.599220,109.609001 103.599220,109.609001 
	C103.599220,109.609001 103.996460,109.359901 104.518585,109.045967 
	C105.021561,108.703979 105.524536,108.362000 106.457520,108.011795 
	C106.638763,107.675133 106.820007,107.338463 107.074280,106.415749 
	C107.072113,106.218903 107.069946,106.022049 106.911331,105.447548 
	C106.759621,105.211571 106.556374,105.034882 105.756981,104.578476 
	C105.117653,103.474571 104.478325,102.370667 103.947357,100.576843 
	C104.647400,95.835297 106.665413,100.745186 108.373329,100.137589 
	C108.373329,100.137589 108.839172,100.189804 109.083130,100.645531 
	C109.415718,101.039055 109.748306,101.432579 110.199150,102.606560 
	C113.936211,104.806808 117.391724,105.398079 120.303520,100.380447 
	C121.487320,99.236938 122.671127,98.093422 124.527313,96.932587 
	C126.346184,96.643272 128.165054,96.353958 130.461121,95.792473 
	C130.725922,95.540398 130.990723,95.288322 131.859192,94.864037 
	C132.912445,93.554695 133.965698,92.245361 135.508118,90.920349 
	C135.508118,90.920349 135.980850,90.793633 136.454956,91.052597 
	C136.615540,91.134071 136.776123,91.215538 137.191498,91.940948 
	C139.155624,91.702667 141.119751,91.464386 143.456314,90.942657 
	C143.743683,90.813255 144.006500,90.645416 144.550751,90.591515 
	C144.550751,90.591515 144.886566,90.678040 145.057892,91.014755 
	C145.384415,90.700806 145.710922,90.386864 146.527451,89.697662 
	C147.319672,88.788315 148.111893,87.878967 148.982101,86.958107 
	C148.982101,86.958107 148.963684,86.881454 149.410202,86.539612 
	C149.608810,86.030640 149.807434,85.521660 150.402542,84.585266 
	C150.542313,84.032593 150.682083,83.479919 151.194443,82.411766 
	C151.031769,81.409927 150.869095,80.408089 150.706406,79.406250 
	C149.689789,79.914299 148.673157,80.422348 147.463211,81.024422 
	C147.463211,81.024422 147.398514,81.442047 147.053268,81.201942 
	C146.907608,81.589569 146.761963,81.977203 146.476547,82.907265 
	C146.125259,83.946198 145.773987,84.985138 144.907898,86.404243 
	C144.575180,86.669899 144.242462,86.935555 143.068710,87.169998 
	C141.373383,87.141754 139.678055,87.113518 138.007309,87.024239 
	C138.007309,87.024239 137.942093,87.015457 137.933960,86.548088 
	C137.597260,86.281776 137.260574,86.015472 136.547226,85.076576 
	C135.797058,83.713058 135.046890,82.349533 134.374435,80.253952 
	C133.279343,76.544800 133.472000,72.662018 137.465836,71.512444 
	C139.372513,70.963631 142.166214,73.496574 144.558136,74.633636 
	C144.461319,75.087326 144.364502,75.541016 144.267685,75.994705 
	C146.451309,74.976990 148.634918,73.959282 150.997269,72.858261 
	C143.689743,65.425026 137.681824,64.946724 131.356735,71.179001 
	C130.655045,71.817612 129.953339,72.456223 128.543839,73.360344 
	C127.070305,76.782806 123.453629,80.168083 128.354919,83.750374 
	C128.354919,83.750374 128.311874,83.775711 128.333176,84.290215 
	C128.580185,84.513237 128.827209,84.736259 128.997284,84.981270 
M62.067101,99.564560 
	C59.290485,94.742371 54.956226,92.093956 49.611782,93.144409 
	C43.745087,94.297508 38.113190,96.645195 32.332439,98.487183 
	C40.811321,107.583374 41.293972,118.614601 43.530430,129.751877 
	C48.509464,127.441490 53.599014,125.436256 58.328918,122.788544 
	C63.440063,119.927414 65.684471,115.129021 64.872505,109.307732 
	C64.442551,106.225227 63.268730,103.246483 62.067101,99.564560 
M68.130402,98.386688 
	C67.309143,98.809685 66.487892,99.232689 66.596985,99.176498 
	C68.610031,104.978180 70.452011,110.286835 72.471008,116.105667 
	C74.569962,115.133308 76.700768,114.146194 78.238762,113.433701 
	C75.955345,107.740723 73.906761,102.633202 71.750031,97.256050 
	C70.967987,97.492134 69.878616,97.820992 68.130402,98.386688 
M145.827515,93.474426 
	C145.892899,93.814880 145.958298,94.155334 146.023682,94.495789 
	C146.100296,94.157303 146.176895,93.818810 145.827515,93.474426 
z"/>
<path fill="#FFFFFF" opacity="1.000000" stroke="none" 
	d="
M151.531342,1.000000 
	C151.094284,1.796740 150.319641,2.951358 149.263763,3.338089 
	C119.789665,14.133333 90.262543,24.784006 60.801277,35.613903 
	C48.973351,39.961819 36.813778,43.758831 25.636955,49.442360 
	C9.816687,57.487129 2.294031,77.402344 8.055076,94.325630 
	C15.980576,117.607063 24.558380,140.667221 32.927689,163.796509 
	C38.241764,178.482391 44.286781,192.934021 48.927673,207.826126 
	C55.751766,229.723907 80.433189,241.530533 102.217445,233.241089 
	C138.884308,219.288422 175.951050,206.389847 212.782715,192.865753 
	C231.493164,185.995544 241.738525,170.931747 239.664551,151.091965 
	C238.718079,142.038055 234.675842,133.248291 231.606964,124.489655 
	C226.996277,111.330658 221.960938,98.321075 217.189575,85.217590 
	C210.365952,66.478058 203.661697,47.695023 196.822937,28.961060 
	C191.513153,14.415513 180.702713,6.173645 165.991058,2.606885 
	C164.794189,2.316713 163.415482,2.878287 162.145203,2.768141 
	C159.471542,2.536309 156.813751,2.121181 154.074738,1.390639 
	C185.319138,1.000000 216.638275,1.000000 247.978699,1.000000 
	C247.978699,79.950005 247.978699,158.900009 247.978699,237.925018 
	C165.754028,237.925018 83.507965,237.925018 1.130950,237.925018 
	C1.130950,159.123291 1.130950,80.246292 1.130950,1.000000 
	C51.020290,1.000000 101.041489,1.000000 151.531342,1.000000 
z"/>
<path fill="#ABDF15" opacity="1.000000" stroke="none" 
	d="
M62.248913,99.892731 
	C63.268730,103.246483 64.442551,106.225227 64.872505,109.307732 
	C65.684471,115.129021 63.440063,119.927414 58.328918,122.788544 
	C53.599014,125.436256 48.509464,127.441490 43.530430,129.751877 
	C41.293972,118.614601 40.811321,107.583374 32.332439,98.487183 
	C38.113190,96.645195 43.745087,94.297508 49.611782,93.144409 
	C54.956226,92.093956 59.290485,94.742371 62.248913,99.892731 
M54.756187,116.720467 
	C55.589123,109.847328 55.137192,103.293381 49.137318,98.646690 
	C47.885147,97.676933 45.704189,97.149132 44.235233,97.525635 
	C43.462906,97.723587 42.618050,100.517464 42.988945,101.795921 
	C44.552063,107.183899 46.458504,112.482079 48.481358,117.719643 
	C48.959106,118.956619 50.376743,119.830605 51.362022,120.871567 
	C52.398899,119.748459 53.435776,118.625343 54.756187,116.720467 
z"/>
<path fill="#AFDD22" opacity="1.000000" stroke="none" 
	d="
M102.989105,109.198761 
	C102.989105,109.198761 102.632996,108.979927 102.334358,108.594139 
	C101.355629,107.244087 100.675545,106.279823 99.621399,104.785194 
	C98.900040,106.658745 98.448540,107.831406 97.997040,109.004066 
	C97.768913,109.271057 97.540787,109.538040 96.997391,110.087837 
	C96.421791,110.525009 96.292938,110.753555 96.295578,111.056282 
	C93.673363,114.041039 90.436615,114.866852 86.895645,113.165321 
	C82.215004,110.916161 79.768684,106.787933 79.014145,101.838860 
	C78.740669,100.045105 79.688667,98.065109 80.487656,96.388321 
	C79.374382,104.590851 83.660034,111.084465 90.662987,111.648247 
	C90.205254,110.677170 89.713097,109.633049 89.603668,108.647415 
	C96.670609,108.705597 100.011375,102.182106 95.977127,96.074165 
	C94.889771,94.427895 91.514908,93.398216 89.383804,93.660385 
	C88.037048,93.826057 86.075432,96.932251 86.115982,98.679451 
	C86.186653,101.724113 87.590515,104.737839 88.046997,107.771011 
	C86.446434,105.067680 85.369820,102.285179 83.969299,99.676575 
	C83.187035,98.219551 81.866844,97.051338 80.789055,95.752975 
	C82.647354,89.736893 87.699692,88.882271 93.996201,88.456268 
	C91.674843,83.710068 89.635971,79.541428 88.082565,75.133301 
	C88.864494,74.675652 89.160973,74.457504 89.457451,74.239357 
	C89.457451,74.239357 89.765976,74.318253 90.292465,74.250076 
	C92.527298,73.811523 94.235634,73.441147 95.303009,73.209724 
	C96.156868,77.244766 96.921089,80.856209 97.685310,84.467651 
	C97.685310,84.467651 97.581421,84.755058 97.692871,85.217400 
	C98.128593,86.246048 98.452866,86.812355 98.777138,87.378662 
	C98.888367,88.040138 98.999596,88.701607 99.208267,89.911194 
	C99.383530,90.795486 99.589195,91.007980 99.922722,91.096794 
	C99.922722,91.096794 99.922470,91.003471 99.909760,91.420952 
	C101.211029,94.981209 102.525017,98.123978 103.839005,101.266754 
	C104.478325,102.370667 105.117653,103.474571 106.077194,104.956772 
	C106.538574,105.610924 106.762032,105.774300 107.067772,105.825195 
	C107.069946,106.022049 107.072113,106.218903 106.808075,106.804665 
	C106.252220,107.395485 106.080772,107.670967 106.027512,108.020020 
	C105.524536,108.362000 105.021561,108.703979 104.012466,109.120712 
	C103.333946,109.196556 103.161530,109.197655 102.989105,109.198761 
z"/>
<path fill="#A9DF0E" opacity="1.000000" stroke="none" 
	d="
M92.469284,157.549301 
	C92.469284,157.549301 92.480919,157.205795 92.371628,156.701843 
	C92.162308,155.485687 92.062279,154.773468 91.978386,153.654785 
	C91.016495,149.955017 90.038460,146.661713 89.060425,143.368439 
	C89.428688,143.224228 89.796944,143.080002 90.819000,142.944824 
	C94.485603,141.744675 95.023132,144.157974 96.091431,146.280899 
	C96.729836,147.426788 97.221382,148.301193 97.712936,149.175613 
	C97.712936,149.175613 97.680649,149.232056 97.699661,149.597397 
	C98.126587,150.982986 98.534508,152.003250 98.942429,153.023499 
	C99.035049,153.725479 99.127670,154.427444 98.981995,155.686188 
	C99.202202,157.134583 99.660713,158.026184 100.110840,158.954025 
	C100.102470,158.990250 100.082733,158.918732 100.071587,159.209549 
	C100.306877,160.005951 100.553314,160.511536 101.005455,161.152039 
	C101.211159,161.286942 101.656433,161.496170 101.656433,161.496170 
	C101.656433,161.496170 101.684547,161.804642 101.788422,162.226624 
	C102.230515,163.110443 102.568733,163.572281 102.906960,164.034134 
	C103.118073,164.573318 103.329185,165.112503 103.874969,166.115509 
	C105.137451,167.361221 106.065254,168.143082 106.993057,168.924957 
	C106.993057,168.924957 106.986526,169.024338 106.925598,169.298828 
	C106.710602,169.928802 106.556526,170.284271 106.402451,170.639755 
	C105.406845,170.917648 104.411240,171.195526 102.934326,171.714188 
	C102.220963,172.183090 101.988907,172.411209 101.756851,172.639343 
	C101.756851,172.639343 101.712021,172.643982 101.359558,172.623077 
	C100.343056,172.797821 99.679016,172.993469 98.634315,173.105896 
	C97.745781,172.084335 97.102814,171.193466 96.753532,170.199402 
	C95.277809,165.999435 93.889534,161.768753 92.469284,157.549301 
z"/>
<path fill="#ACDE1B" opacity="1.000000" stroke="none" 
	d="
M137.993805,136.077087 
	C138.442871,135.991806 138.891937,135.906525 139.759186,136.201569 
	C142.407944,141.583023 143.295700,135.384003 145.142792,136.319550 
	C145.521301,137.748611 145.758011,138.861694 145.980789,140.337128 
	C145.007065,146.425873 146.517731,148.437546 152.083420,149.051102 
	C153.156464,149.169403 154.184235,149.698257 154.854523,150.207840 
	C153.161667,150.844849 151.859360,151.650375 150.529785,151.698196 
	C148.600159,151.767639 146.650864,151.289993 144.709946,151.045670 
	C145.373856,153.231216 145.992111,155.432434 146.732605,157.591721 
	C146.927063,158.158783 147.500305,158.595947 147.899597,159.092773 
	C147.899597,159.092773 147.886169,159.028564 147.929199,159.375916 
	C148.622101,160.519836 149.271988,161.316422 149.921875,162.113007 
	C150.118561,162.504639 150.315247,162.896255 150.395157,163.599411 
	C150.043594,164.206238 149.808792,164.501541 149.574005,164.796844 
	C149.574005,164.796844 149.268692,164.854980 148.841888,164.966888 
	C147.599991,165.617172 146.784882,166.155533 145.969788,166.693909 
	C145.969788,166.693909 145.603134,166.714554 145.366638,166.407272 
	C144.417282,164.064926 143.704437,162.029877 142.991592,159.994812 
	C142.846115,159.130844 142.700638,158.266861 142.365952,156.766815 
	C141.566162,154.602127 140.955582,153.073517 140.305695,151.281235 
	C140.146530,150.681473 140.026657,150.345352 139.887939,149.732513 
	C139.650864,149.163177 139.432648,148.870575 139.204224,148.252762 
	C138.810028,146.948914 138.426041,145.970276 138.037537,144.630615 
	C137.114090,142.532593 136.195175,140.795578 135.138504,138.798157 
	C135.603394,138.273438 136.432755,137.337357 137.262100,136.401260 
	C137.262100,136.401260 137.300766,136.363556 137.502533,136.329956 
	C137.704285,136.296371 137.993805,136.077087 137.993805,136.077087 
z"/>
<path fill="#ACDD17" opacity="1.000000" stroke="none" 
	d="
M125.125610,86.980972 
	C125.297928,87.519516 125.470253,88.058060 125.917229,89.027069 
	C126.465698,89.630249 126.739510,89.802963 127.013321,89.975677 
	C127.482109,90.263329 127.950905,90.550987 129.045410,90.997330 
	C130.199265,92.449425 130.727386,93.742828 131.255524,95.036240 
	C130.990723,95.288322 130.725922,95.540398 129.887177,95.755722 
	C127.312546,95.325630 124.936630,93.268326 123.854927,96.949913 
	C122.671127,98.093422 121.487320,99.236938 119.728317,100.703751 
	C116.129044,101.293396 113.104965,101.559753 110.080894,101.826103 
	C109.748306,101.432579 109.415718,101.039055 109.018013,100.347878 
	C108.952896,100.050224 109.063499,99.910400 109.438354,99.935425 
	C110.898605,99.248390 111.983986,98.536339 113.458595,97.854401 
	C119.839165,97.052269 121.264923,94.443115 118.679001,89.226257 
	C118.180717,88.221008 118.052765,87.032181 117.807480,85.585678 
	C116.571121,83.778793 115.281265,82.314278 113.994049,80.478493 
	C113.995186,79.118698 113.993675,78.130173 114.380356,77.083954 
	C117.172409,78.026939 119.576256,79.027634 121.980110,80.028328 
	C121.980110,80.028328 122.003983,80.005951 122.043243,80.278656 
	C122.330185,80.816963 122.577881,81.082550 122.825577,81.348137 
	C122.825577,81.348137 122.844460,81.687935 122.928574,82.192039 
	C123.716995,84.124420 124.421303,85.552696 125.125610,86.980972 
z"/>
<path fill="#B0DC24" opacity="1.000000" stroke="none" 
	d="
M121.298645,169.180801 
	C121.298653,169.180801 121.656189,169.133179 122.084770,169.027069 
	C122.762810,168.685699 123.012276,168.450470 123.261742,168.215225 
	C123.614220,168.044998 123.966705,167.874771 124.724396,167.740265 
	C125.714844,167.930740 126.300087,168.085510 126.885330,168.240265 
	C126.885330,168.240265 126.933319,168.625336 127.034988,169.075043 
	C127.399826,169.753967 127.662994,169.983154 127.926163,170.212357 
	C128.084320,170.339569 128.242493,170.466766 128.999573,170.802292 
	C133.161987,171.028198 134.275421,168.531631 134.014069,165.765488 
	C133.679260,162.221970 132.574432,158.751221 132.114166,155.034546 
	C133.024673,153.771683 133.622421,152.723404 134.435150,151.754578 
	C134.650131,151.834015 135.084671,151.979889 135.103973,152.262970 
	C135.367737,153.042068 135.612183,153.538071 135.885971,154.414673 
	C136.941986,157.534302 137.968658,160.273346 138.995316,163.012390 
	C139.011719,163.456223 139.028137,163.900040 138.988617,165.003967 
	C138.623657,166.775589 138.314651,167.887115 138.005646,168.998627 
	C136.792236,170.471619 135.578827,171.944611 133.870316,173.697784 
	C132.883423,174.298004 132.391632,174.618027 131.899841,174.938049 
	C131.480484,174.979965 131.061157,175.021896 129.908356,175.102020 
	C127.751579,175.215988 126.328262,175.291748 124.904938,175.367508 
	C123.832954,174.627365 122.760971,173.887222 121.272972,172.758957 
	C120.588959,171.594162 120.320953,170.817490 120.052940,170.040817 
	C120.052940,170.040817 120.027603,169.994186 120.288422,169.958496 
	C120.799042,169.675476 121.048843,169.428131 121.298645,169.180801 
z"/>
<path fill="#AEDD1C" opacity="1.000000" stroke="none" 
	d="
M145.994720,139.974792 
	C145.758011,138.861694 145.521301,137.748611 145.281067,136.076019 
	C145.643433,135.092712 146.009338,134.668869 146.375229,134.245026 
	C146.375229,134.245026 146.713562,134.163757 147.098724,134.001587 
	C147.682373,133.578461 147.880875,133.317520 148.079391,133.056595 
	C148.079391,133.056595 147.995117,133.046448 148.432587,133.047470 
	C153.692917,130.956406 158.156494,132.743958 162.639328,134.323563 
	C162.639328,134.323563 162.687729,134.349548 162.745575,134.753052 
	C164.621078,145.340515 163.947220,146.703751 155.372391,149.717926 
	C155.904190,148.241455 156.480957,147.145844 157.041275,146.039795 
	C157.024811,146.029373 157.036057,146.056915 157.276047,145.971283 
	C157.631058,145.587479 157.746078,145.289291 157.895477,144.589096 
	C157.626160,137.108887 154.559006,134.323273 148.754852,136.116058 
	C148.195358,136.361267 148.067963,136.650146 147.951431,137.289246 
	C147.447220,138.338638 147.118469,139.120010 146.589844,139.907471 
	C146.389954,139.913559 145.994720,139.974792 145.994720,139.974792 
z"/>
<path fill="#B1DE28" opacity="1.000000" stroke="none" 
	d="
M68.459824,98.268265 
	C69.878616,97.820992 70.967987,97.492134 71.750031,97.256050 
	C73.906761,102.633202 75.955345,107.740723 78.238762,113.433701 
	C76.700768,114.146194 74.569962,115.133308 72.471008,116.105667 
	C70.452011,110.286835 68.610031,104.978180 66.596985,99.176498 
	C66.487892,99.232689 67.309143,98.809685 68.459824,98.268265 
z"/>
<path fill="#AFDD22" opacity="1.000000" stroke="none" 
	d="
M129.074860,160.074707 
	C128.493027,160.875992 127.911209,161.677292 126.898941,162.791199 
	C126.198112,163.337112 125.927719,163.570404 125.657326,163.803680 
	C125.657326,163.803680 125.312424,163.837875 124.712784,163.906586 
	C121.749924,163.965683 119.386711,163.956055 117.023491,163.946426 
	C117.023491,163.946426 116.746742,163.766251 116.423927,163.445007 
	C114.759277,161.393250 113.417450,159.662766 112.075615,157.932266 
	C112.075615,157.932266 112.048943,158.000153 112.066025,157.612335 
	C111.463173,155.709320 110.843231,154.194122 110.223282,152.678925 
	C110.223282,152.678925 110.180565,152.322144 110.039795,151.897797 
	C109.641846,151.227768 109.384674,150.982117 109.127495,150.736450 
	C109.127495,150.736450 108.965576,150.388397 108.794327,150.011749 
	C108.457024,149.360001 108.254692,149.114838 108.086769,148.580307 
	C110.106537,145.868774 112.165222,146.002594 114.304527,147.994293 
	C114.496613,148.754562 114.688698,149.514816 114.663452,150.908798 
	C115.381561,153.332703 116.317001,155.122894 117.252434,156.913086 
	C117.411072,157.001038 117.569702,157.088989 117.991150,157.447418 
	C118.253975,157.717926 118.574944,158.018600 118.574944,158.018600 
	C118.574944,158.018600 118.799522,158.126953 118.926682,158.473145 
	C119.672935,158.959610 120.292015,159.099854 120.911102,159.240112 
	C121.940300,159.151733 122.969505,159.063354 124.682869,158.965591 
	C125.566864,158.967285 125.766693,158.978363 126.174164,159.231506 
	C127.188103,159.580902 127.994408,159.688248 128.869186,159.865448 
	C128.937653,159.935287 129.074860,160.074707 129.074860,160.074707 
z"/>
<path fill="#ABDE17" opacity="1.000000" stroke="none" 
	d="
M170.075668,127.238525 
	C170.620483,127.034592 171.165314,126.830650 172.265594,126.342438 
	C174.202515,125.604164 175.583954,125.150154 176.965393,124.696144 
	C177.727722,124.747963 178.490036,124.799789 179.926453,124.939926 
	C181.146118,125.310326 181.691727,125.592422 181.876587,125.916878 
	C180.679077,126.619728 179.842316,127.280228 178.592148,127.917336 
	C174.673843,127.458733 172.492172,128.865875 172.067490,132.468933 
	C171.416611,137.991089 173.851196,141.651321 178.954788,143.345215 
	C178.258957,144.338699 177.601898,145.038162 176.635712,145.774353 
	C175.911560,145.817627 175.496567,145.824188 175.081558,145.830750 
	C174.577957,145.593185 174.074341,145.355621 173.166046,144.740540 
	C171.323105,143.472610 169.884842,142.582230 168.446594,141.691833 
	C168.446594,141.691833 168.424667,141.583542 168.306702,141.185989 
	C167.639404,138.167191 167.090057,135.545959 166.540710,132.924713 
	C166.674759,132.503296 166.808807,132.081894 167.208130,131.145905 
	C168.340836,129.500397 169.208252,128.369461 170.075668,127.238525 
z"/>
<path fill="#B3DE2C" opacity="1.000000" stroke="none" 
	d="
M131.876099,70.945656 
	C137.681824,64.946724 143.689743,65.425026 150.997269,72.858261 
	C148.634918,73.959282 146.451309,74.976990 144.267685,75.994705 
	C144.364502,75.541016 144.461319,75.087326 144.558136,74.633636 
	C142.166214,73.496574 139.372513,70.963631 137.465836,71.512444 
	C133.472000,72.662018 133.279343,76.544800 134.064392,80.493073 
	C133.486526,78.682915 133.287262,76.621429 132.925461,74.588875 
	C132.705200,73.351418 132.234360,72.158554 131.876099,70.945656 
z"/>
<path fill="#ABDF18" opacity="1.000000" stroke="none" 
	d="
M131.616425,71.062332 
	C132.234360,72.158554 132.705200,73.351418 132.925461,74.588875 
	C133.287262,76.621429 133.486526,78.682915 134.025543,80.859108 
	C135.046890,82.349533 135.797058,83.713058 136.803146,85.607635 
	C137.353409,86.430946 137.647751,86.723206 137.942093,87.015457 
	C137.942093,87.015457 138.007309,87.024239 138.160858,87.283981 
	C138.837112,87.742493 139.359833,87.941261 140.170700,88.354080 
	C141.720825,89.191811 142.982819,89.815475 144.244797,90.439140 
	C144.006500,90.645416 143.743683,90.813255 142.925720,91.022903 
	C141.930695,91.062302 141.466263,91.021446 140.802032,90.757706 
	C139.734833,90.684624 138.867401,90.834427 137.729340,91.046036 
	C137.284729,91.170883 137.110733,91.233948 136.936722,91.297012 
	C136.776123,91.215538 136.615540,91.134071 136.078339,90.742676 
	C135.469955,90.217339 135.197433,90.087486 134.593506,89.924377 
	C133.223969,89.165298 132.145065,88.525047 131.066147,87.884796 
	C131.066147,87.884796 130.926620,87.458252 130.756012,86.994720 
	C130.077332,85.998398 129.569244,85.465599 129.061172,84.932800 
	C129.061172,84.932800 128.997284,84.981270 128.999496,84.720947 
	C128.771759,84.232323 128.541824,84.004021 128.311874,83.775711 
	C128.311874,83.775711 128.354919,83.750374 128.355042,83.382896 
	C128.320267,82.324150 128.285370,81.632881 128.457642,80.649353 
	C128.765488,78.892944 128.866135,77.428787 128.981140,75.984573 
	C128.995499,76.004509 128.953445,75.977638 129.106140,75.904663 
	C129.324188,75.741760 129.462875,75.624847 129.441528,75.566826 
	C129.369125,75.370064 129.240112,75.194122 129.138977,74.690269 
	C129.180695,73.945152 129.216171,73.519989 129.251633,73.094826 
	C129.953339,72.456223 130.655045,71.817612 131.616425,71.062332 
z"/>
<path fill="#E6F79D" opacity="1.000000" stroke="none" 
	d="
M166.218155,133.012970 
	C167.090057,135.545959 167.639404,138.167191 168.267792,141.146759 
	C167.542938,142.257950 166.355362,142.862396 165.997421,143.787766 
	C163.674911,149.791870 158.758438,152.291763 152.963394,152.806244 
	C149.089188,153.150192 147.550781,154.504059 147.931915,158.667007 
	C147.500305,158.595947 146.927063,158.158783 146.732605,157.591721 
	C145.992111,155.432434 145.373856,153.231216 144.709946,151.045670 
	C146.650864,151.289993 148.600159,151.767639 150.529785,151.698196 
	C151.859360,151.650375 153.161667,150.844849 154.879333,150.208984 
	C155.282486,150.040009 155.417358,150.098801 155.417358,150.098801 
	C163.947220,146.703751 164.621078,145.340515 162.745148,134.780518 
	C163.756470,133.970062 164.826035,133.535645 166.218155,133.012970 
z"/>
<path fill="#B2DE28" opacity="1.000000" stroke="none" 
	d="
M88.678467,143.328201 
	C90.038460,146.661713 91.016495,149.955017 91.770447,153.592438 
	C91.546364,153.936584 91.128860,153.816605 91.128860,153.816605 
	C90.260117,151.911560 89.391373,150.006516 88.522629,148.101471 
	C88.053589,148.017380 87.584541,147.933289 87.115501,147.849197 
	C86.142952,151.193954 85.170403,154.538712 83.964325,158.686615 
	C82.227394,154.976700 80.540276,151.827652 79.352203,148.500427 
	C79.072342,147.716660 80.217720,145.757309 81.154289,145.338821 
	C83.393410,144.338287 85.898689,143.933380 88.678467,143.328201 
z"/>
<path fill="#A7E009" opacity="1.000000" stroke="none" 
	d="
M179.005554,127.940735 
	C179.842316,127.280228 180.679077,126.619728 182.073761,125.932671 
	C182.631668,125.906113 182.992798,126.073654 183.064819,126.397446 
	C183.857574,127.105125 184.578293,127.489006 185.601593,128.081009 
	C189.742599,133.166672 188.450104,138.084671 186.020248,143.011627 
	C185.704422,143.070114 185.423950,143.203140 184.739136,143.613708 
	C183.920334,143.917435 183.541275,144.018158 182.801178,144.031860 
	C181.880188,143.494034 181.320206,143.043198 181.004425,142.344360 
	C181.446320,138.524384 181.644012,134.952393 181.851440,131.009064 
	C181.447357,130.068253 181.033585,129.498764 180.394073,128.850464 
	C179.780762,128.494659 179.393158,128.217697 179.005554,127.940735 
z"/>
<path fill="#E7F89F" opacity="1.000000" stroke="none" 
	d="
M103.893181,100.921799 
	C102.525017,98.123978 101.211029,94.981209 99.887932,91.462196 
	C101.310852,92.824966 102.742882,94.563980 104.174919,96.302986 
	C104.620552,96.197639 105.066185,96.092285 105.511818,95.986931 
	C105.137901,93.454681 104.365540,90.902443 104.491341,88.395271 
	C104.647179,85.289780 105.547638,82.221664 106.534851,79.050018 
	C106.943283,78.962646 107.082069,79.072151 107.025063,79.468414 
	C106.628395,82.114670 106.288734,84.364655 105.836014,87.363586 
	C108.851387,86.759033 110.845840,86.359161 113.126572,85.964188 
	C113.603706,85.971588 113.794563,85.974091 113.948067,86.295090 
	C113.271469,87.410233 112.632240,88.206879 111.629868,89.027252 
	C106.870697,91.295448 105.463509,94.504349 107.999153,99.258560 
	C107.934029,99.687309 107.924988,99.861107 107.915955,100.034904 
	C106.665413,100.745186 104.647400,95.835297 103.893181,100.921799 
z"/>
<path fill="#E6F79D" opacity="1.000000" stroke="none" 
	d="
M182.992798,126.073654 
	C182.992798,126.073654 182.631668,125.906113 182.434494,125.890320 
	C181.691727,125.592422 181.146118,125.310326 180.307999,124.915764 
	C185.152084,122.862244 187.796890,125.941818 189.727646,129.889114 
	C192.354568,135.259674 191.231216,139.662033 186.378174,142.973694 
	C188.450104,138.084671 189.742599,133.166672 185.492676,127.776276 
	C184.385071,126.866829 183.688934,126.470238 182.992798,126.073654 
z"/>
<path fill="#AFDD22" opacity="1.000000" stroke="none" 
	d="
M95.944588,146.009430 
	C95.023132,144.157974 94.485603,141.744675 91.115784,142.919708 
	C93.803886,141.372757 96.849022,139.859924 100.579147,138.198990 
	C104.967239,139.060318 106.006004,140.901535 102.750221,143.823303 
	C99.732948,143.052567 96.769218,141.577286 95.944588,146.009430 
z"/>
<path fill="#E6F79D" opacity="1.000000" stroke="none" 
	d="
M136.932724,136.247742 
	C136.432755,137.337357 135.603394,138.273438 135.138504,138.798157 
	C136.195175,140.795578 137.114090,142.532593 137.694473,144.568451 
	C136.075394,143.841751 134.794861,142.816208 132.568893,141.033508 
	C133.287323,144.605438 133.717499,146.744217 134.063232,148.948303 
	C133.978775,149.013611 133.812210,149.142563 133.612000,148.938446 
	C132.994278,148.115326 132.576767,147.496323 132.158279,146.939545 
	C132.157318,147.001755 132.189880,146.880890 132.171448,146.556976 
	C131.782761,145.481400 131.412491,144.729706 130.998413,143.653870 
	C130.579605,142.573273 130.204590,141.816833 129.804565,140.773956 
	C129.521317,139.974060 129.263092,139.460602 129.004852,138.947144 
	C130.735168,137.891403 132.465469,136.835678 135.069183,135.247040 
	C134.719788,135.054108 135.661575,135.574158 136.932724,136.247742 
z"/>
<path fill="#B3DD2F" opacity="1.000000" stroke="none" 
	d="
M103.112167,143.970459 
	C106.006004,140.901535 104.967239,139.060318 100.937469,138.059311 
	C102.916992,135.967346 104.488579,136.909119 105.520058,139.367828 
	C106.344299,141.332581 106.973022,143.379349 107.610321,145.169998 
	C109.610115,147.334656 113.797195,141.413773 114.434464,147.682159 
	C112.165222,146.002594 110.106537,145.868774 107.832588,148.596741 
	C107.338791,148.948975 107.169861,148.965485 107.000931,148.982010 
	C105.910973,147.723328 104.821014,146.464645 103.436966,144.819107 
	C103.142868,144.432266 103.112167,143.970459 103.112167,143.970459 
z"/>
<path fill="#B3DD2F" opacity="1.000000" stroke="none" 
	d="
M125.966522,158.989441 
	C125.766693,158.978363 125.566864,158.967285 125.068161,158.923218 
	C127.087067,153.450745 125.394081,148.769150 122.170700,144.281097 
	C121.605141,143.493637 121.701454,142.230804 122.077957,141.081772 
	C123.112579,140.996109 123.561363,141.016190 124.011345,141.416016 
	C124.702988,143.826645 125.019531,146.103210 126.159912,147.838364 
	C128.716461,151.728317 128.313736,155.313477 125.966522,158.989441 
z"/>
<path fill="#E2F58F" opacity="1.000000" stroke="none" 
	d="
M92.340996,157.939453 
	C93.889534,161.768753 95.277809,165.999435 96.753532,170.199402 
	C97.102814,171.193466 97.745781,172.084335 98.636520,173.320450 
	C99.019379,173.618225 99.029755,174.048508 99.029755,174.048508 
	C97.738594,173.827179 95.577629,173.975311 95.300667,173.323212 
	C93.765434,169.708710 92.549644,165.936432 91.539764,162.134445 
	C91.239868,161.005417 91.959984,159.605438 92.340996,157.939453 
z"/>
<path fill="#E7F89F" opacity="1.000000" stroke="none" 
	d="
M97.773766,83.978203 
	C96.921089,80.856209 96.156868,77.244766 95.303009,73.209724 
	C94.235634,73.441147 92.527298,73.811523 90.438972,74.187706 
	C92.903061,72.936935 95.747139,71.680374 98.698364,70.376472 
	C98.372284,75.490013 98.117256,79.489388 97.773766,83.978203 
z"/>
<path fill="#E6F999" opacity="1.000000" stroke="none" 
	d="
M131.801407,155.249115 
	C132.574432,158.751221 133.679260,162.221970 134.014069,165.765488 
	C134.275421,168.531631 133.161987,171.028198 129.295578,170.873566 
	C130.588791,167.644577 134.864090,165.279419 131.681778,160.900757 
	C131.411179,160.528427 130.903366,160.328491 130.173096,159.647308 
	C129.862701,158.831223 129.884933,158.416275 130.070770,157.764709 
	C130.756699,156.768433 131.279053,156.008774 131.801407,155.249115 
z"/>
<path fill="#E5F79B" opacity="1.000000" stroke="none" 
	d="
M121.991241,79.642372 
	C119.576256,79.027634 117.172409,78.026939 114.011688,77.035919 
	C111.197243,77.721100 109.139656,78.396622 107.082069,79.072151 
	C107.082069,79.072151 106.943283,78.962646 106.873566,78.905731 
	C110.781593,73.268860 119.321205,73.497887 121.991241,79.642372 
z"/>
<path fill="#E6F79D" opacity="1.000000" stroke="none" 
	d="
M162.683228,133.943954 
	C158.156494,132.743958 153.692917,130.956406 148.468811,133.069687 
	C149.541718,132.075500 151.193710,130.025589 152.456070,130.242554 
	C155.966370,130.845917 159.314758,132.391144 162.683228,133.943954 
z"/>
<path fill="#E5F79B" opacity="1.000000" stroke="none" 
	d="
M131.001038,88.193192 
	C132.145065,88.525047 133.223969,89.165298 134.635254,90.146347 
	C134.967606,90.487152 135.018936,90.936012 135.018951,90.936020 
	C133.965698,92.245361 132.912445,93.554695 131.557358,94.950134 
	C130.727386,93.742828 130.199265,92.449425 129.332001,90.994080 
	C129.640564,90.055290 130.288254,89.278442 131.001038,88.193192 
z"/>
<path fill="#B3DE2C" opacity="1.000000" stroke="none" 
	d="
M145.422714,86.024078 
	C145.773987,84.985138 146.125259,83.946198 146.755554,82.416855 
	C147.155853,81.764977 147.277176,81.603508 147.398514,81.442047 
	C147.398514,81.442047 147.463211,81.024422 147.889923,81.028831 
	C149.151703,81.664574 149.986786,82.295906 150.821854,82.927238 
	C150.682083,83.479919 150.542313,84.032593 150.010468,84.684219 
	C149.400146,85.482590 149.181915,86.182022 148.963684,86.881454 
	C148.963684,86.881454 148.982101,86.958107 148.638855,86.936111 
	C147.337967,86.617432 146.380341,86.320755 145.422714,86.024078 
z"/>
<path fill="#E7F89F" opacity="1.000000" stroke="none" 
	d="
M110.140022,102.216331 
	C113.104965,101.559753 116.129044,101.293396 119.554817,100.963104 
	C117.391724,105.398079 113.936211,104.806808 110.140022,102.216331 
z"/>
<path fill="#E4F897" opacity="1.000000" stroke="none" 
	d="
M102.750221,143.823303 
	C103.112167,143.970459 103.142868,144.432266 103.164970,144.662415 
	C100.804047,145.093842 97.742546,144.255264 97.804626,148.760101 
	C97.221382,148.301193 96.729836,147.426788 96.091431,146.280899 
	C96.769218,141.577286 99.732948,143.052567 102.750221,143.823303 
z"/>
<path fill="#E5F79B" opacity="1.000000" stroke="none" 
	d="
M128.250458,80.941612 
	C128.285370,81.632881 128.320267,82.324150 128.359772,83.358383 
	C123.453629,80.168083 127.070305,76.782806 128.897736,73.227585 
	C129.216171,73.519989 129.180695,73.945152 129.055298,74.924896 
	C128.965378,75.479485 128.953445,75.977638 128.953445,75.977638 
	C128.953445,75.977638 128.995499,76.004509 128.753021,76.275208 
	C128.423843,78.011139 128.337158,79.476372 128.250458,80.941612 
z"/>
<path fill="#E6F79D" opacity="1.000000" stroke="none" 
	d="
M139.253967,162.744232 
	C137.968658,160.273346 136.941986,157.534302 136.204285,154.551346 
	C137.665253,155.541641 138.837234,156.775864 140.005432,158.005905 
	C140.001633,158.001724 139.992004,157.994675 139.992004,157.994675 
	C139.832199,159.488480 139.672394,160.982285 139.253967,162.744232 
z"/>
<path fill="#B3DB2E" opacity="1.000000" stroke="none" 
	d="
M145.165314,86.214157 
	C146.380341,86.320755 147.337967,86.617432 148.599854,86.941864 
	C148.111893,87.878967 147.319672,88.788315 145.960495,89.971634 
	C145.224564,90.389740 145.055573,90.533890 144.886566,90.678040 
	C144.886566,90.678040 144.550751,90.591515 144.397766,90.515327 
	C142.982819,89.815475 141.720825,89.191811 140.531281,88.310051 
	C141.705719,87.768372 142.807739,87.484795 143.909760,87.201210 
	C144.242462,86.935555 144.575180,86.669899 145.165314,86.214157 
z"/>
<path fill="#E6F79D" opacity="1.000000" stroke="none" 
	d="
M142.741852,160.261169 
	C143.704437,162.029877 144.417282,164.064926 145.192535,166.465607 
	C141.408218,166.012314 141.896591,163.293396 142.741852,160.261169 
z"/>
<path fill="#E6F79D" opacity="1.000000" stroke="none" 
	d="
M145.957001,134.180084 
	C146.009338,134.668869 145.643433,135.092712 145.139252,135.760071 
	C143.295700,135.384003 142.407944,141.583023 140.092224,136.283646 
	C140.007095,135.985367 140.007523,136.033478 140.163147,135.929169 
	C140.519775,135.628967 140.672043,135.400558 140.775589,135.139664 
	C142.363327,134.798157 143.951050,134.456650 145.957001,134.180084 
z"/>
<path fill="#E6F999" opacity="1.000000" stroke="none" 
	d="
M117.105576,164.314316 
	C119.386711,163.956055 121.749924,163.965683 124.557373,163.983261 
	C122.625267,166.803421 120.000359,166.804626 117.105576,164.314316 
z"/>
<path fill="#E6F79D" opacity="1.000000" stroke="none" 
	d="
M169.894867,126.961990 
	C169.208252,128.369461 168.340836,129.500397 167.227051,130.813599 
	C166.785202,129.205353 166.589722,127.414841 166.327133,125.009613 
	C167.831833,125.754128 168.772949,126.219788 169.894867,126.961990 
z"/>
<path fill="#E1F895" opacity="1.000000" stroke="none" 
	d="
M98.420731,108.999207 
	C98.448540,107.831406 98.900040,106.658745 99.621399,104.785194 
	C100.675545,106.279823 101.355629,107.244087 102.138657,108.520805 
	C101.109207,108.886955 99.976814,108.940651 98.420731,108.999207 
z"/>
<path fill="#E5F79B" opacity="1.000000" stroke="none" 
	d="
M141.001831,90.980591 
	C141.466263,91.021446 141.930695,91.062302 142.739502,91.164627 
	C141.119751,91.464386 139.155624,91.702667 137.064117,91.618980 
	C137.110733,91.233948 137.284729,91.170883 138.101837,91.110725 
	C139.497238,91.069283 140.249542,91.024933 141.001831,90.980591 
z"/>
<path fill="#E6F999" opacity="1.000000" stroke="none" 
	d="
M112.045105,158.321838 
	C113.417450,159.662766 114.759277,161.393250 116.261887,163.413300 
	C112.870193,163.878677 112.098404,161.598831 112.045105,158.321838 
z"/>
<path fill="#B3DB2E" opacity="1.000000" stroke="none" 
	d="
M151.008148,82.669502 
	C149.986786,82.295906 149.151703,81.664574 147.986588,80.981819 
	C148.673157,80.422348 149.689789,79.914299 150.706421,79.406250 
	C150.869095,80.408089 151.031769,81.409927 151.008148,82.669502 
z"/>
<path fill="#B3DD2F" opacity="1.000000" stroke="none" 
	d="
M117.171432,156.557739 
	C116.317001,155.122894 115.381561,153.332703 114.637581,151.304840 
	C115.582832,152.778915 116.336632,154.490646 117.171432,156.557739 
z"/>
<path fill="#E6F79D" opacity="1.000000" stroke="none" 
	d="
M168.360764,142.031586 
	C169.884842,142.582230 171.323105,143.472610 172.889999,144.665115 
	C171.437408,144.101929 169.856171,143.236649 168.360764,142.031586 
z"/>
<path fill="#B4DC33" opacity="1.000000" stroke="none" 
	d="
M180.760223,142.592377 
	C181.320206,143.043198 181.880188,143.494034 182.631393,144.275391 
	C182.182281,145.051392 181.541931,145.496872 180.901596,145.942368 
	C180.901596,145.942368 180.447678,145.981552 179.844818,145.994354 
	C178.476242,145.917313 177.710541,145.827469 176.944839,145.737610 
	C177.601898,145.038162 178.258957,144.338699 179.243927,143.247177 
	C179.967957,142.767532 180.364090,142.679947 180.760223,142.592377 
z"/>
<path fill="#E7F89F" opacity="1.000000" stroke="none" 
	d="
M124.191116,96.941254 
	C124.936630,93.268326 127.312546,95.325630 129.648575,95.891815 
	C128.165054,96.353958 126.346184,96.643272 124.191116,96.941254 
z"/>
<path fill="#E4F897" opacity="1.000000" stroke="none" 
	d="
M101.748505,161.094437 
	C101.656433,161.496170 101.211159,161.286942 101.036636,160.858154 
	C100.602318,159.925812 100.342522,159.422272 100.082733,158.918732 
	C100.082733,158.918732 100.102470,158.990250 100.106842,158.583389 
	C100.072533,157.434570 100.033844,156.692596 99.995155,155.950638 
	C100.610291,157.531326 101.225433,159.112015 101.748505,161.094437 
z"/>
<path fill="#E6F79D" opacity="1.000000" stroke="none" 
	d="
M140.344986,151.544891 
	C140.955582,153.073517 141.566162,154.602127 142.200836,156.480042 
	C141.669998,157.129562 141.115067,157.429794 140.276062,157.862350 
	C139.992004,157.994675 140.001633,158.001724 140.008057,157.549576 
	C140.124664,155.246582 140.234818,153.395737 140.344986,151.544891 
z"/>
<path fill="#E6F79D" opacity="1.000000" stroke="none" 
	d="
M176.635712,145.774353 
	C177.710541,145.827469 178.476242,145.917313 179.625519,146.056061 
	C178.531815,147.881073 177.017319,149.228775 175.116318,146.178833 
	C175.496567,145.824188 175.911560,145.817627 176.635712,145.774353 
z"/>
<path fill="#E3F694" opacity="1.000000" stroke="none" 
	d="
M125.022430,175.662048 
	C126.328262,175.291748 127.751579,175.215988 129.600922,175.176575 
	C128.397934,175.460831 126.768929,175.708710 125.022430,175.662048 
z"/>
<path fill="#E5F79B" opacity="1.000000" stroke="none" 
	d="
M125.346138,86.756950 
	C124.421303,85.552696 123.716995,84.124420 123.006966,82.343079 
	C123.856384,83.504311 124.711517,85.018623 125.346138,86.756950 
z"/>
<path fill="#E6F999" opacity="1.000000" stroke="none" 
	d="
M110.156242,153.096008 
	C110.843231,154.194122 111.463173,155.709320 112.086868,157.578552 
	C111.423485,156.459412 110.756348,154.986267 110.156242,153.096008 
z"/>
<path fill="#E6F79D" opacity="1.000000" stroke="none" 
	d="
M145.992416,166.990082 
	C146.784882,166.155533 147.599991,165.617172 148.718842,165.061829 
	C148.020096,165.791992 147.017578,166.539124 145.992416,166.990082 
z"/>
<path fill="#E4F897" opacity="1.000000" stroke="none" 
	d="
M99.195282,152.782867 
	C98.534508,152.003250 98.126587,150.982986 97.707054,149.629059 
	C98.279671,150.377655 98.863907,151.459930 99.195282,152.782867 
z"/>
<path fill="#E6F79D" opacity="1.000000" stroke="none" 
	d="
M124.010139,141.036255 
	C123.561363,141.016190 123.112579,140.996109 122.327576,140.949127 
	C123.444618,140.279053 124.897888,139.635910 126.685951,139.245346 
	C127.020737,139.497910 126.958801,139.949951 126.972778,139.961517 
	C126.986748,139.973083 126.976654,139.951324 126.672104,139.974365 
	C125.848488,140.295792 125.329407,140.594193 124.605179,140.900055 
	C124.400024,140.907547 124.010139,141.036255 124.010139,141.036255 
z"/>
<path fill="#E6F79D" opacity="1.000000" stroke="none" 
	d="
M176.676666,124.501007 
	C175.583954,125.150154 174.202515,125.604164 172.464233,126.126984 
	C173.534256,125.565819 174.961105,124.935844 176.676666,124.501007 
z"/>
<path fill="#E3F694" opacity="1.000000" stroke="none" 
	d="
M119.713074,170.078201 
	C120.320953,170.817490 120.588959,171.594162 120.958542,172.668793 
	C119.081581,172.854294 117.035866,172.781570 119.713074,170.078201 
z"/>
<path fill="#AFDD22" opacity="1.000000" stroke="none" 
	d="
M99.824738,155.903748 
	C100.033844,156.692596 100.072533,157.434570 100.115219,158.547165 
	C99.660713,158.026184 99.202202,157.134583 99.022606,156.038757 
	C99.301521,155.834564 99.654320,155.856842 99.824738,155.903748 
z"/>
<path fill="#B3DE2C" opacity="1.000000" stroke="none" 
	d="
M143.489227,87.185608 
	C142.807739,87.484795 141.705719,87.768372 140.243134,88.095993 
	C139.359833,87.941261 138.837112,87.742493 138.148560,87.314499 
	C139.678055,87.113518 141.373383,87.141754 143.489227,87.185608 
z"/>
<path fill="#E6F79D" opacity="1.000000" stroke="none" 
	d="
M138.333130,168.933655 
	C138.314651,167.887115 138.623657,166.775589 139.044098,165.332748 
	C138.990570,166.290497 138.825592,167.579590 138.333130,168.933655 
z"/>
<path fill="#E4F897" opacity="1.000000" stroke="none" 
	d="
M106.996902,168.568008 
	C106.065254,168.143082 105.137451,167.361221 104.116577,166.281265 
	C105.015915,166.725815 106.008331,167.468430 106.996902,168.568008 
z"/>
<path fill="#E6F79D" opacity="1.000000" stroke="none" 
	d="
M181.290771,145.972931 
	C181.541931,145.496872 182.182281,145.051392 182.992432,144.362396 
	C183.541275,144.018158 183.920334,143.917435 184.593262,143.797791 
	C183.818039,144.520401 182.748978,145.261948 181.290771,145.972931 
z"/>
<path fill="#E6F79D" opacity="1.000000" stroke="none" 
	d="
M149.946716,161.749664 
	C149.271988,161.316422 148.622101,160.519836 147.924438,159.410690 
	C148.574966,159.860870 149.273254,160.623596 149.946716,161.749664 
z"/>
<path fill="#E5F79B" opacity="1.000000" stroke="none" 
	d="
M146.040512,93.477371 
	C146.176895,93.818810 146.100296,94.157303 146.023682,94.495789 
	C145.958298,94.155334 145.892899,93.814880 146.040512,93.477371 
z"/>
<path fill="#E4F897" opacity="1.000000" stroke="none" 
	d="
M103.128067,163.855164 
	C102.568733,163.572281 102.230515,163.110443 101.877335,162.353424 
	C102.357964,162.597565 102.853569,163.136887 103.128067,163.855164 
z"/>
<path fill="#B3DD2F" opacity="1.000000" stroke="none" 
	d="
M120.719460,159.025818 
	C120.292015,159.099854 119.672935,158.959610 118.979584,158.586060 
	C119.446159,158.505676 119.986984,158.658615 120.719460,159.025818 
z"/>
<path fill="#B0DC24" opacity="1.000000" stroke="none" 
	d="
M126.958801,139.949951 
	C126.958801,139.949951 127.020737,139.497910 127.057144,139.272858 
	C127.518013,139.024979 127.942474,139.002151 128.685898,138.963226 
	C129.263092,139.460602 129.521317,139.974060 129.500671,140.722565 
	C128.467468,140.621704 127.713135,140.285828 126.958801,139.949951 
z"/>
<path fill="#B3DB2E" opacity="1.000000" stroke="none" 
	d="
M149.186951,86.710533 
	C149.181915,86.182022 149.400146,85.482590 149.812210,84.897926 
	C149.807434,85.521660 149.608810,86.030640 149.186951,86.710533 
z"/>
<path fill="#E5F79B" opacity="1.000000" stroke="none" 
	d="
M129.063583,85.236694 
	C129.569244,85.465599 130.077332,85.998398 130.630280,86.808861 
	C130.138779,86.571213 129.602386,86.055908 129.063583,85.236694 
z"/>
<path fill="#E2F58F" opacity="1.000000" stroke="none" 
	d="
M91.079071,154.180542 
	C91.128860,153.816605 91.546364,153.936584 91.754303,153.998917 
	C92.062279,154.773468 92.162308,155.485687 92.277603,156.558014 
	C91.871666,156.126892 91.450470,155.335693 91.079071,154.180542 
z"/>
<path fill="#E4F897" opacity="1.000000" stroke="none" 
	d="
M99.365570,174.018478 
	C99.029755,174.048508 99.019379,173.618225 99.017181,173.403671 
	C99.679016,172.993469 100.343056,172.797821 101.351219,172.602142 
	C101.030685,173.064224 100.366035,173.526337 99.365570,174.018478 
z"/>
<path fill="#E5F79B" opacity="1.000000" stroke="none" 
	d="
M144.972229,90.846397 
	C145.055573,90.533890 145.224564,90.389740 145.715485,90.159256 
	C145.710922,90.386864 145.384415,90.700806 144.972229,90.846397 
z"/>
<path fill="#AFDD22" opacity="1.000000" stroke="none" 
	d="
M129.907181,158.001328 
	C129.884933,158.416275 129.862701,158.831223 129.813660,159.557175 
	C129.786880,159.868179 129.433960,159.982376 129.254410,160.028534 
	C129.074860,160.074707 128.937653,159.935287 128.951035,159.607910 
	C129.278671,158.854141 129.592926,158.427734 129.907181,158.001328 
z"/>
<path fill="#E3F694" opacity="1.000000" stroke="none" 
	d="
M132.213806,174.951111 
	C132.391632,174.618027 132.883423,174.298004 133.674835,173.951141 
	C133.492233,174.270920 133.010010,174.617538 132.213806,174.951111 
z"/>
<path fill="#E7F89F" opacity="1.000000" stroke="none" 
	d="
M98.817307,87.024445 
	C98.452866,86.812355 98.128593,86.246048 97.770615,85.348953 
	C98.110428,85.568855 98.483955,86.119537 98.817307,87.024445 
z"/>
<path fill="#B3DE2C" opacity="1.000000" stroke="none" 
	d="
M137.938019,86.781769 
	C137.647751,86.723206 137.353409,86.430946 136.991470,85.943924 
	C137.260574,86.015472 137.597260,86.281776 137.938019,86.781769 
z"/>
<path fill="#E1F895" opacity="1.000000" stroke="none" 
	d="
M106.242523,108.015907 
	C106.080772,107.670967 106.252220,107.395485 106.771561,107.097687 
	C106.820007,107.338463 106.638763,107.675133 106.242523,108.015907 
z"/>
<path fill="#E6F999" opacity="1.000000" stroke="none" 
	d="
M107.141701,149.211060 
	C107.169861,148.965485 107.338791,148.948975 107.761902,148.916016 
	C108.254692,149.114838 108.457024,149.360001 108.664581,149.870316 
	C108.231544,149.883713 107.757004,149.661911 107.141701,149.211060 
z"/>
<path fill="#E3F694" opacity="1.000000" stroke="none" 
	d="
M126.730240,167.929016 
	C126.300087,168.085510 125.714844,167.930740 124.875351,167.613342 
	C125.272453,167.506409 125.923805,167.562103 126.730240,167.929016 
z"/>
<path fill="#E4F897" opacity="1.000000" stroke="none" 
	d="
M106.691986,170.652771 
	C106.556526,170.284271 106.710602,169.928802 106.975075,169.304459 
	C107.050819,169.578995 107.016174,170.122406 106.691986,170.652771 
z"/>
<path fill="#E4F897" opacity="1.000000" stroke="none" 
	d="
M102.019653,172.641968 
	C101.988907,172.411209 102.220963,172.183090 102.703606,171.920563 
	C102.730278,172.138977 102.506363,172.391785 102.019653,172.641968 
z"/>
<path fill="#E6F79D" opacity="1.000000" stroke="none" 
	d="
M149.873825,164.725662 
	C149.808792,164.501541 150.043594,164.206238 150.528915,163.775238 
	C150.577515,163.977859 150.375580,164.316162 149.873825,164.725662 
z"/>
<path fill="#E6F999" opacity="1.000000" stroke="none" 
	d="
M127.859055,169.960907 
	C127.662994,169.983154 127.399826,169.753967 127.101227,169.257416 
	C127.307838,169.229874 127.549896,169.469650 127.859055,169.960907 
z"/>
<path fill="#E3F694" opacity="1.000000" stroke="none" 
	d="
M121.025589,169.218658 
	C121.048843,169.428131 120.799042,169.675476 120.289703,169.984253 
	C120.270950,169.782623 120.511742,169.519577 121.025589,169.218658 
z"/>
<path fill="#E3F694" opacity="1.000000" stroke="none" 
	d="
M122.998932,168.245087 
	C123.012276,168.450470 122.762810,168.685699 122.250122,168.955078 
	C122.236641,168.751114 122.486382,168.513031 122.998932,168.245087 
z"/>
<path fill="#E6F999" opacity="1.000000" stroke="none" 
	d="
M125.935326,163.770447 
	C125.927719,163.570404 126.198112,163.337112 126.732239,163.040802 
	C126.735092,163.230927 126.474205,163.484085 125.935326,163.770447 
z"/>
<path fill="#E6F79D" opacity="1.000000" stroke="none" 
	d="
M137.903610,135.919006 
	C137.993805,136.077087 137.704285,136.296371 137.526413,136.317383 
	C137.503510,136.145920 137.658463,135.953430 137.903610,135.919006 
z"/>
<path fill="#E7F89F" opacity="1.000000" stroke="none" 
	d="
M89.172516,74.250099 
	C89.160973,74.457504 88.864494,74.675652 88.288620,74.915779 
	C88.302010,74.712112 88.594795,74.486481 89.172516,74.250099 
z"/>
<path fill="#B3DB2E" opacity="1.000000" stroke="none" 
	d="
M135.263519,90.928177 
	C135.018936,90.936012 134.967606,90.487152 134.925873,90.265175 
	C135.197433,90.087486 135.469955,90.217339 135.841278,90.613190 
	C135.980850,90.793633 135.508118,90.920349 135.263519,90.928177 
z"/>
<path fill="#ACDE1B" opacity="1.000000" stroke="none" 
	d="
M140.573151,135.224457 
	C140.672043,135.400558 140.519775,135.628967 140.138733,135.927963 
	C139.929367,135.695206 140.066696,135.454620 140.573151,135.224457 
z"/>
<path fill="#E6F79D" opacity="1.000000" stroke="none" 
	d="
M147.843903,133.131500 
	C147.880875,133.317520 147.682373,133.578461 147.238800,133.898407 
	C147.105835,133.631149 147.310730,133.380814 147.843903,133.131500 
z"/>
<path fill="#E1F895" opacity="1.000000" stroke="none" 
	d="
M96.461510,110.965889 
	C96.292938,110.753555 96.421791,110.525009 96.882233,110.326385 
	C96.987144,110.523193 96.835510,110.720978 96.461510,110.965889 
z"/>
<path fill="#E1F895" opacity="1.000000" stroke="none" 
	d="
M103.074883,109.337448 
	C103.161530,109.197655 103.333946,109.196556 103.751404,109.277679 
	C103.996460,109.359901 103.599220,109.609001 103.599220,109.609001 
	C103.599220,109.609001 103.160660,109.476143 103.074883,109.337448 
z"/>
<path fill="#E1F895" opacity="1.000000" stroke="none" 
	d="
M106.989548,105.636368 
	C106.762032,105.774300 106.538574,105.610924 106.349487,105.126266 
	C106.556374,105.034882 106.759621,105.211571 106.989548,105.636368 
z"/>
<path fill="#ACDD17" opacity="1.000000" stroke="none" 
	d="
M108.144638,100.086243 
	C107.924988,99.861107 107.934029,99.687309 108.197472,99.373413 
	C108.697784,99.421028 108.901665,99.646721 109.063499,99.910400 
	C109.063499,99.910400 108.952896,100.050224 108.896034,100.120010 
	C108.839172,100.189804 108.373329,100.137589 108.144638,100.086243 
z"/>
<path fill="#E5F79B" opacity="1.000000" stroke="none" 
	d="
M122.791412,81.066566 
	C122.577881,81.082550 122.330185,80.816963 122.027817,80.281403 
	C122.234505,80.269295 122.495872,80.527145 122.791412,81.066566 
z"/>
<path fill="#E7F89F" opacity="1.000000" stroke="none" 
	d="
M99.892349,90.882431 
	C99.589195,91.007980 99.383530,90.795486 99.321930,90.228584 
	C99.586349,90.163712 99.760963,90.387115 99.892349,90.882431 
z"/>
<path fill="#E6F999" opacity="1.000000" stroke="none" 
	d="
M109.183945,151.002899 
	C109.384674,150.982117 109.641846,151.227768 109.956467,151.738617 
	C109.756073,151.758987 109.498238,151.514160 109.183945,151.002899 
z"/>
<path fill="#E5F79B" opacity="1.000000" stroke="none" 
	d="
M126.916222,89.759491 
	C126.739510,89.802963 126.465698,89.630249 126.136787,89.213104 
	C126.390038,89.079971 126.635849,89.271507 126.916222,89.759491 
z"/>
<path fill="#B3DD2F" opacity="1.000000" stroke="none" 
	d="
M118.577629,157.881378 
	C118.574944,158.018600 118.253975,157.717926 118.187103,157.636169 
	C118.328140,157.485596 118.481499,157.548828 118.577629,157.881378 
z"/>
<path fill="#E5F79B" opacity="1.000000" stroke="none" 
	d="
M128.322525,84.032959 
	C128.541824,84.004021 128.771759,84.232323 129.037964,84.709961 
	C128.827209,84.736259 128.580185,84.513237 128.322525,84.032959 
z"/>
<path fill="#B3DE2C" opacity="1.000000" stroke="none" 
	d="
M146.825424,82.145630 
	C146.761963,81.977203 146.907608,81.589569 147.225891,81.321991 
	C147.277176,81.603508 147.155853,81.764977 146.825424,82.145630 
z"/>
<path fill="#EDF6B3" opacity="1.000000" stroke="none" 
	d="
M54.614418,117.111343 
	C53.435776,118.625343 52.398899,119.748459 51.362022,120.871567 
	C50.376743,119.830605 48.959106,118.956619 48.481358,117.719643 
	C46.458504,112.482079 44.552063,107.183899 42.988945,101.795921 
	C42.618050,100.517464 43.462906,97.723587 44.235233,97.525635 
	C45.704189,97.149132 47.885147,97.676933 49.137318,98.646690 
	C55.137192,103.293381 55.589123,109.847328 54.614418,117.111343 
z"/>
<path fill="#ECF7B1" opacity="1.000000" stroke="none" 
	d="
M88.435555,107.764526 
	C87.590515,104.737839 86.186653,101.724113 86.115982,98.679451 
	C86.075432,96.932251 88.037048,93.826057 89.383804,93.660385 
	C91.514908,93.398216 94.889771,94.427895 95.977127,96.074165 
	C100.011375,102.182106 96.670609,108.705597 89.513351,108.475449 
	C88.886017,108.025322 88.684433,107.865166 88.435555,107.764526 
z"/>
<path fill="#A8E103" opacity="1.000000" stroke="none" 
	d="
M88.046997,107.771011 
	C88.684433,107.865166 88.886017,108.025322 89.130615,108.416962 
	C89.713097,109.633049 90.205254,110.677170 90.662987,111.648247 
	C83.660034,111.084465 79.374382,104.590851 80.821228,96.204147 
	C80.746452,95.801735 80.926086,95.935219 80.857574,95.844101 
	C81.866844,97.051338 83.187035,98.219551 83.969299,99.676575 
	C85.369820,102.285179 86.446434,105.067680 88.046997,107.771011 
z"/>
<path fill="#AFDD22" opacity="1.000000" stroke="none" 
	d="
M100.071587,159.209549 
	C100.342522,159.422272 100.602318,159.925812 100.830933,160.723236 
	C100.553314,160.511536 100.306877,160.005951 100.071587,159.209549 
z"/>
<path fill="#F1F3C2" opacity="1.000000" stroke="none" 
	d="
M140.305695,151.281235 
	C140.234818,153.395737 140.124664,155.246582 140.011856,157.553757 
	C138.837234,156.775864 137.665253,155.541641 136.174957,154.170746 
	C135.612183,153.538071 135.367737,153.042068 135.300903,152.072083 
	C135.034912,150.693054 134.591278,149.788025 134.147675,148.882996 
	C133.717499,146.744217 133.287323,144.605438 132.568893,141.033508 
	C134.794861,142.816208 136.075394,143.841751 137.699005,144.929459 
	C138.426041,145.970276 138.810028,146.948914 139.213165,148.536804 
	C139.457123,149.433792 139.681961,149.721512 139.906784,150.009247 
	C140.026657,150.345352 140.146530,150.681473 140.305695,151.281235 
z"/>
<path fill="#E8FB99" opacity="1.000000" stroke="none" 
	d="
M155.372391,149.717926 
	C155.417358,150.098801 155.282486,150.040009 155.257690,150.038864 
	C154.184235,149.698257 153.156464,149.169403 152.083420,149.051102 
	C146.517731,148.437546 145.007065,146.425873 145.980789,140.337128 
	C145.994720,139.974792 146.389954,139.913559 146.883087,140.176392 
	C148.741989,146.906876 148.741531,146.903214 155.607407,146.052444 
	C156.083633,145.993439 156.573959,146.048309 157.057739,146.050232 
	C156.480957,147.145844 155.904190,148.241455 155.372391,149.717926 
z"/>
<path fill="#E6F79D" opacity="1.000000" stroke="none" 
	d="
M139.887939,149.732513 
	C139.681961,149.721512 139.457123,149.433792 139.223358,148.862000 
	C139.432648,148.870575 139.650864,149.163177 139.887939,149.732513 
z"/>
<path fill="#E2F693" opacity="1.000000" stroke="none" 
	d="
M111.993011,89.003525 
	C112.632240,88.206879 113.271469,87.410233 114.325653,86.285995 
	C115.745056,85.948280 116.749512,85.938164 117.753975,85.928040 
	C118.052765,87.032181 118.180717,88.221008 118.679001,89.226257 
	C121.264923,94.443115 119.839165,97.052269 113.251076,97.570656 
	C112.433891,94.505707 112.213448,91.754616 111.993011,89.003525 
z"/>
<path fill="#A9DB12" opacity="1.000000" stroke="none" 
	d="
M107.025063,79.468414 
	C109.139656,78.396622 111.197243,77.721100 113.623497,77.093613 
	C113.993675,78.130173 113.995186,79.118698 113.676552,80.707413 
	C113.184372,82.858162 113.012329,84.408730 112.840294,85.959290 
	C110.845840,86.359161 108.851387,86.759033 105.836014,87.363586 
	C106.288734,84.364655 106.628395,82.114670 107.025063,79.468414 
z"/>
<path fill="#A8DF0C" opacity="1.000000" stroke="none" 
	d="
M111.629868,89.027252 
	C112.213448,91.754616 112.433891,94.505707 112.861855,97.540543 
	C111.983986,98.536339 110.898605,99.248390 109.438354,99.935425 
	C108.901665,99.646721 108.697784,99.421028 108.253548,99.118469 
	C105.463509,94.504349 106.870697,91.295448 111.629868,89.027252 
z"/>
<path fill="#ECF7BB" opacity="1.000000" stroke="none" 
	d="
M113.126572,85.964188 
	C113.012329,84.408730 113.184372,82.858162 113.673904,81.078682 
	C115.281265,82.314278 116.571121,83.778793 117.807480,85.585678 
	C116.749512,85.938164 115.745056,85.948280 114.363007,85.967499 
	C113.794563,85.974091 113.603706,85.971588 113.126572,85.964188 
z"/>
<path fill="#A7E207" opacity="1.000000" stroke="none" 
	d="
M130.070770,157.764709 
	C129.592926,158.427734 129.278671,158.854141 128.882568,159.538086 
	C127.994408,159.688248 127.188103,159.580902 126.174164,159.231506 
	C128.313736,155.313477 128.716461,151.728317 126.159912,147.838364 
	C125.019531,146.103210 124.702988,143.826645 124.011345,141.416016 
	C124.010139,141.036255 124.400024,140.907547 124.925056,140.917297 
	C125.958939,140.601807 126.467796,140.276566 126.976654,139.951324 
	C126.976654,139.951324 126.986748,139.973083 126.972778,139.961517 
	C127.713135,140.285828 128.467468,140.621704 129.525696,141.009003 
	C130.204590,141.816833 130.579605,142.573273 130.776978,143.841248 
	C131.129517,145.195480 131.659698,146.038193 132.189880,146.880890 
	C132.189880,146.880890 132.157318,147.001755 132.110626,147.317780 
	C132.699661,148.758133 133.335388,149.882492 134.054810,151.165924 
	C134.138504,151.324997 134.220169,151.675125 134.220169,151.675125 
	C133.622421,152.723404 133.024673,153.771683 132.114166,155.034546 
	C131.279053,156.008774 130.756699,156.768433 130.070770,157.764709 
z"/>
<path fill="#E6F79D" opacity="1.000000" stroke="none" 
	d="
M134.435150,151.754578 
	C134.220169,151.675125 134.138504,151.324997 134.057678,150.853149 
	C133.921982,149.968384 133.867096,149.555481 133.812210,149.142563 
	C133.812210,149.142563 133.978775,149.013611 134.063217,148.948303 
	C134.591278,149.788025 135.034912,150.693054 135.281601,151.788986 
	C135.084671,151.979889 134.650131,151.834015 134.435150,151.754578 
z"/>
<path fill="#F1F4C0" opacity="1.000000" stroke="none" 
	d="
M157.041275,146.039795 
	C156.573959,146.048309 156.083633,145.993439 155.607407,146.052444 
	C148.741531,146.903214 148.741989,146.906876 147.082977,140.170319 
	C147.118469,139.120010 147.447220,138.338638 148.138550,137.174713 
	C148.728622,136.596603 148.895142,136.358398 149.000641,136.077545 
	C154.559006,134.323273 157.626160,137.108887 157.717331,144.733154 
	C157.274261,145.493668 157.117996,145.752884 157.036057,146.056915 
	C157.036057,146.056915 157.024811,146.029373 157.041275,146.039795 
z"/>
<path fill="#E8FB99" opacity="1.000000" stroke="none" 
	d="
M148.754852,136.116058 
	C148.895142,136.358398 148.728622,136.596603 148.313995,136.906708 
	C148.067963,136.650146 148.195358,136.361267 148.754852,136.116058 
z"/>
<path fill="#E8FB99" opacity="1.000000" stroke="none" 
	d="
M157.276047,145.971283 
	C157.117996,145.752884 157.274261,145.493668 157.682968,145.135162 
	C157.746078,145.289291 157.631058,145.587479 157.276047,145.971283 
z"/>
<path fill="#ECF6AD" opacity="1.000000" stroke="none" 
	d="
M181.004425,142.344360 
	C180.364090,142.679947 179.967957,142.767532 179.282684,142.953156 
	C173.851196,141.651321 171.416611,137.991089 172.067490,132.468933 
	C172.492172,128.865875 174.673843,127.458733 178.592163,127.917343 
	C179.393158,128.217697 179.780762,128.494659 180.438477,129.203888 
	C181.086304,130.217575 181.464020,130.798996 181.841721,131.380417 
	C181.644012,134.952393 181.446320,138.524384 181.004425,142.344360 
z"/>
<path fill="#B3DE2C" opacity="1.000000" stroke="none" 
	d="
M128.457642,80.649353 
	C128.337158,79.476372 128.423843,78.011139 128.738663,76.255264 
	C128.866135,77.428787 128.765488,78.892944 128.457642,80.649353 
z"/>
<path fill="#B3DB2E" opacity="1.000000" stroke="none" 
	d="
M140.802032,90.757706 
	C140.249542,91.024933 139.497238,91.069283 138.372467,91.048935 
	C138.867401,90.834427 139.734833,90.684624 140.802032,90.757706 
z"/>
<path fill="#B3DE2C" opacity="1.000000" stroke="none" 
	d="
M129.106140,75.904663 
	C128.953445,75.977638 128.965378,75.479485 129.049057,75.244858 
	C129.240112,75.194122 129.369125,75.370064 129.441528,75.566826 
	C129.462875,75.624847 129.324188,75.741760 129.106140,75.904663 
z"/>
<path fill="#ABDE17" opacity="1.000000" stroke="none" 
	d="
M183.064819,126.397446 
	C183.688934,126.470238 184.385071,126.866829 185.190125,127.568153 
	C184.578293,127.489006 183.857574,127.105125 183.064819,126.397446 
z"/>
<path fill="#ABDE17" opacity="1.000000" stroke="none" 
	d="
M181.851440,131.009064 
	C181.464020,130.798996 181.086304,130.217575 180.664200,129.282715 
	C181.033585,129.498764 181.447357,130.068253 181.851440,131.009064 
z"/>
<path fill="#B0DC24" opacity="1.000000" stroke="none" 
	d="
M133.612000,148.938446 
	C133.867096,149.555481 133.921982,149.968384 133.973984,150.694061 
	C133.335388,149.882492 132.699661,148.758133 132.111588,147.255554 
	C132.576767,147.496323 132.994278,148.115326 133.612000,148.938446 
z"/>
<path fill="#B0DC24" opacity="1.000000" stroke="none" 
	d="
M132.171448,146.556976 
	C131.659698,146.038193 131.129517,145.195480 130.820786,144.165405 
	C131.412491,144.729706 131.782761,145.481400 132.171448,146.556976 
z"/>
<path fill="#B0DC24" opacity="1.000000" stroke="none" 
	d="
M126.672104,139.974365 
	C126.467796,140.276566 125.958939,140.601807 125.130203,140.909821 
	C125.329407,140.594193 125.848488,140.295792 126.672104,139.974365 
z"/>
</svg>